<?xml version="1.0" encoding="UTF-8" standalone="no"?><!DOCTYPE svg PUBLIC "-//W3C//DTD SVG 1.1//EN" "http://www.w3.org/Graphics/SVG/1.1/DTD/svg11.dtd"><svg width="100%" height="100%" viewBox="0 0 32 32" version="1.1" xmlns="http://www.w3.org/2000/svg" xmlns:xlink="http://www.w3.org/1999/xlink" xml:space="preserve" xmlns:serif="http://www.serif.com/" style="fill-rule:evenodd;clip-rule:evenodd;stroke-linejoin:round;stroke-miterlimit:2;"><path d="M24.274,19.934c-1.584,4.13 -5.589,7.066 -10.274,7.066c-6.071,0 -11,-4.929 -11,-11c0,-6.071 4.929,-11 11,-11c4.685,0 8.69,2.935 10.274,7.066c-0.682,0.125 -1.304,0.424 -1.818,0.848c-1.261,-3.449 -4.573,-5.914 -8.456,-5.914c-4.967,0 -9,4.033 -9,9c0,4.967 4.033,9 9,9c3.883,0 7.196,-2.465 8.456,-5.914c0.514,0.424 1.136,0.723 1.818,0.848Z" style="fill:#e4e6ea;"/><circle cx="25" cy="16" r="3" style="fill:#6366f1;"/><circle cx="14" cy="16" r="3" style="fill:#0fb881;"/></svg>