<?xml version="1.0" encoding="UTF-8" standalone="no"?><!DOCTYPE svg PUBLIC "-//W3C//DTD SVG 1.1//EN" "http://www.w3.org/Graphics/SVG/1.1/DTD/svg11.dtd"><svg width="100%" height="100%" viewBox="0 0 32 32" version="1.1" xmlns="http://www.w3.org/2000/svg" xmlns:xlink="http://www.w3.org/1999/xlink" xml:space="preserve" xmlns:serif="http://www.serif.com/" style="fill-rule:evenodd;clip-rule:evenodd;stroke-linecap:round;stroke-linejoin:round;stroke-miterlimit:1.5;"><path d="M9.971,3.654l0.093,1.966l-0.235,0c-0.045,-0.346 -0.107,-0.594 -0.186,-0.742c-0.128,-0.239 -0.298,-0.415 -0.51,-0.529c-0.212,-0.113 -0.492,-0.17 -0.838,-0.17l-1.181,0l0,6.406c0,0.515 0.056,0.837 0.167,0.965c0.157,0.173 0.398,0.26 0.723,0.26l0.291,0l0,0.229l-3.556,0l0,-0.229l0.297,0c0.355,0 0.606,-0.107 0.754,-0.322c0.091,-0.132 0.136,-0.433 0.136,-0.903l0,-6.406l-1.008,0c-0.392,0 -0.67,0.029 -0.835,0.087c-0.214,0.078 -0.398,0.229 -0.55,0.451c-0.153,0.223 -0.243,0.524 -0.272,0.903l-0.235,0l0.099,-1.966l6.845,0Z" style="fill:#e4e6ea;fill-rule:nonzero;"/><path d="M3.973,14.346l24.055,0" style="fill:none;stroke:#e4e6ea;stroke-width:2px;stroke-dasharray:0.2,3,0,0,0,0;"/><path d="M9.971,17.654l0.093,1.966l-0.235,0c-0.045,-0.346 -0.107,-0.594 -0.186,-0.742c-0.128,-0.239 -0.298,-0.415 -0.51,-0.529c-0.212,-0.113 -0.492,-0.17 -0.838,-0.17l-1.181,0l0,6.406c0,0.515 0.056,0.837 0.167,0.965c0.157,0.173 0.398,0.26 0.723,0.26l0.291,0l0,0.229l-3.556,0l0,-0.229l0.297,0c0.355,0 0.606,-0.107 0.754,-0.322c0.091,-0.132 0.136,-0.433 0.136,-0.903l0,-6.406l-1.008,0c-0.392,0 -0.67,0.029 -0.835,0.087c-0.214,0.078 -0.398,0.229 -0.55,0.451c-0.153,0.223 -0.243,0.524 -0.272,0.903l-0.235,0l0.099,-1.966l6.845,0Z" style="fill:#e4e6ea;fill-rule:nonzero;"/><path d="M3.973,28.346l24.055,0" style="fill:none;stroke:#e4e6ea;stroke-width:2px;stroke-dasharray:0.2,3,0,0,0,0;"/></svg>