<?xml version="1.0" encoding="UTF-8" standalone="no"?><!DOCTYPE svg PUBLIC "-//W3C//DTD SVG 1.1//EN" "http://www.w3.org/Graphics/SVG/1.1/DTD/svg11.dtd"><svg width="32px" height="32px" version="1.1" xmlns="http://www.w3.org/2000/svg" xmlns:xlink="http://www.w3.org/1999/xlink" xml:space="preserve" xmlns:serif="http://www.serif.com/" style="fill-rule:evenodd;clip-rule:evenodd;stroke-linejoin:round;stroke-miterlimit:2;"><path d="M15.976,10.988l-7.929,7.929c-0.182,-0.495 -0.319,-1.012 -0.406,-1.545l6.73,-6.73c0.491,0.219 1.034,0.343 1.605,0.346Zm-3.629,-2.371l-4.194,4.194c0.783,-1.924 2.253,-3.496 4.105,-4.41c0.028,0.073 0.057,0.145 0.089,0.216Zm-2.808,12.857l11.935,-11.935c0.351,0.298 0.678,0.624 0.977,0.975l-11.937,11.937c-0.351,-0.299 -0.677,-0.625 -0.975,-0.977Zm3.527,2.473l10.881,-10.881c0.183,0.494 0.321,1.01 0.409,1.542l-9.748,9.748c-0.532,-0.088 -1.048,-0.226 -1.542,-0.409Zm6.082,-0.082l4.717,-4.717c-0.86,2.145 -2.573,3.857 -4.717,4.717Z" style="fill:#e4e6ea;"/><path d="M19.996,6.818c3.539,1.544 6.016,5.076 6.016,9.182c0,5.526 -4.486,10.012 -10.012,10.012c-5.526,0 -10.012,-4.486 -10.012,-10.012c0,-4.106 2.476,-7.637 6.016,-9.182c-0.002,0.056 -0.004,0.113 -0.004,0.169c0,0.305 0.034,0.602 0.099,0.887c-3.023,1.455 -5.111,4.548 -5.111,8.125c0,4.974 4.038,9.012 9.012,9.012c4.974,0 9.012,-4.038 9.012,-9.012c0,-3.577 -2.088,-6.67 -5.111,-8.125c0.065,-0.285 0.099,-0.582 0.099,-0.887c0,-0.057 -0.001,-0.113 -0.004,-0.169Z" style="fill:#909194;"/><circle cx="16" cy="6.988" r="3" style="fill:#0fb881;"/></svg>