<?xml version="1.0" encoding="UTF-8" standalone="no"?><!DOCTYPE svg PUBLIC "-//W3C//DTD SVG 1.1//EN" "http://www.w3.org/Graphics/SVG/1.1/DTD/svg11.dtd"><svg width="32px" height="32px" version="1.1" xmlns="http://www.w3.org/2000/svg" xmlns:xlink="http://www.w3.org/1999/xlink" xml:space="preserve" xmlns:serif="http://www.serif.com/" style="fill-rule:evenodd;clip-rule:evenodd;stroke-linejoin:round;stroke-miterlimit:2;"><path d="M17.081,8.906l-7.849,7.849l-0.478,-1.473l6.69,-6.69c0.478,0.202 1.004,0.314 1.556,0.314c0.027,0 0.054,-0 0.081,-0.001Zm-6.433,12.207l-0.423,-1.302l10.682,-10.682l1.13,0.821l-11.189,11.189c-0.066,-0.01 -0.133,-0.019 -0.2,-0.025Zm2.749,1.525l10.985,-10.985l1.13,0.821l-11,11l-0.614,0c-0.133,-0.3 -0.302,-0.581 -0.501,-0.836Zm6.703,0.836l-1.539,0l5.958,-5.958l-0.939,2.89l-0.809,0.809c-1.197,0.304 -2.179,1.149 -2.671,2.259Z" style="fill:#e4e6ea;"/><path d="M8.979,9.499l4.299,-3.124c0.125,0.316 0.289,0.612 0.486,0.883l-4.197,3.049c-0.162,-0.294 -0.36,-0.565 -0.589,-0.808Zm-1.214,6.357l1.725,5.308c-0.333,0.063 -0.652,0.168 -0.951,0.309l-1.725,-5.308c0.333,-0.063 0.652,-0.168 0.951,-0.309Zm6.445,8.737l5.581,0c-0.02,0.164 -0.031,0.331 -0.031,0.5c0,0.169 0.011,0.336 0.031,0.5l-5.581,0c0.02,-0.164 0.031,-0.331 0.031,-0.5c0,-0.169 -0.011,-0.336 -0.031,-0.5Z" style="fill:#909194;"/><path d="M17,1.907c1.656,0 3,1.344 3,3c0,1.656 -1.344,3 -3,3c-1.656,0 -3,-1.344 -3,-3c0,-1.656 1.344,-3 3,-3Zm-10.937,7.328c1.656,0 3,1.344 3,3c0,1.656 -1.344,3 -3,3c-1.656,0 -3,-1.344 -3,-3c0,-1.656 1.344,-3 3,-3Zm4.178,12.857c1.656,0 3,1.344 3,3c0,1.656 -1.344,3 -3,3c-1.656,0 -3,-1.344 -3,-3c0,-1.656 1.344,-3 3,-3Zm13.519,0c1.656,0 3,1.344 3,3c0,1.656 -1.344,3 -3,3c-1.656,0 -3,-1.344 -3,-3c0,-1.656 1.344,-3 3,-3Z" style="fill:#0fb881;"/></svg>