<?xml version="1.0" encoding="UTF-8" standalone="no"?><!DOCTYPE svg PUBLIC "-//W3C//DTD SVG 1.1//EN" "http://www.w3.org/Graphics/SVG/1.1/DTD/svg11.dtd"><svg width="100%" height="100%" viewBox="0 0 32 32" version="1.1" xmlns="http://www.w3.org/2000/svg" xmlns:xlink="http://www.w3.org/1999/xlink" xml:space="preserve" xmlns:serif="http://www.serif.com/" style="fill-rule:evenodd;clip-rule:evenodd;stroke-linejoin:round;stroke-miterlimit:2;"><path d="M21.126,26l-14.126,0c-0.552,0 -1,-0.448 -1,-1l0,-14.126c0.32,0.082 0.655,0.126 1,0.126c0.345,0 0.68,-0.044 1,-0.126l-0,13.126l13.126,0c-0.082,0.32 -0.126,0.655 -0.126,1c0,0.345 0.044,0.68 0.126,1Zm2.874,-4.874l-0,-13.126l-13.126,-0c0.082,-0.32 0.126,-0.655 0.126,-1c0,-0.345 -0.044,-0.68 -0.126,-1l14.126,0c0.552,-0 1,0.448 1,1l0,14.126c-0.32,-0.082 -0.655,-0.126 -1,-0.126c-0.345,0 -0.68,0.044 -1,0.126Z" style="fill:#e4e6ea;"/><circle cx="25" cy="25" r="3" style="fill:#6366f1;"/><circle cx="7" cy="7" r="3" style="fill:#0fb881;"/></svg>