<?xml version="1.0" encoding="UTF-8" standalone="no"?><!DOCTYPE svg PUBLIC "-//W3C//DTD SVG 1.1//EN" "http://www.w3.org/Graphics/SVG/1.1/DTD/svg11.dtd"><svg width="32px" height="32px" version="1.1" xmlns="http://www.w3.org/2000/svg" xmlns:xlink="http://www.w3.org/1999/xlink" xml:space="preserve" xmlns:serif="http://www.serif.com/" style="fill-rule:evenodd;clip-rule:evenodd;stroke-linejoin:round;stroke-miterlimit:2;"><path d="M8.06,14l3.544,-3.544c0.168,0.284 0.374,0.552 0.618,0.796c0.244,0.244 0.512,0.45 0.796,0.618l-3.544,3.544c-0.168,-0.284 -0.374,-0.552 -0.618,-0.796c-0.244,-0.244 -0.512,-0.45 -0.796,-0.618Zm9.329,-8.822c3.109,-1.574 7.186,-1.318 9.616,1.112c2.431,2.431 2.661,6.486 0.916,9.427c-0.128,-0.181 -0.274,-0.354 -0.436,-0.516c-0.335,-0.335 -0.716,-0.599 -1.122,-0.79c1.144,-2.136 0.923,-5.012 -0.773,-6.707c-1.701,-1.701 -4.57,-1.897 -6.895,-0.929c-0.193,-0.428 -0.466,-0.829 -0.817,-1.18c-0.154,-0.154 -0.318,-0.293 -0.49,-0.417Zm5.236,16.298l-1.716,1.716c-0.168,-0.284 -0.374,-0.552 -0.618,-0.796c-0.244,-0.244 -0.512,-0.45 -0.796,-0.618l1.716,-1.716c0.168,0.284 0.374,0.552 0.618,0.796c0.244,0.244 0.512,0.45 0.796,0.618Z" style="fill:#e4e6ea;"/><path d="M26.778,20.152c-1.171,1.171 -3.072,1.171 -4.243,0c-1.171,-1.171 -1.171,-3.072 0,-4.243c1.171,-1.171 3.072,-1.171 4.243,0c1.171,1.171 1.171,3.072 -0,4.243Zm-18.629,-0.584c-1.171,1.171 -3.072,1.171 -4.243,0c-1.171,-1.171 -1.171,-3.072 0,-4.243c1.171,-1.171 3.072,-1.171 4.243,0c1.171,1.171 1.171,3.072 0,4.243Zm4.78,-13.265c1.171,-1.171 3.072,-1.171 4.243,0c1.171,1.171 1.171,3.072 0,4.243c-1.171,1.171 -3.072,1.171 -4.243,-0c-1.171,-1.171 -1.171,-3.072 0,-4.243Z" style="fill:#0fb881;"/><path d="M19.584,27.346c-1.171,1.171 -3.072,1.171 -4.243,0c-1.171,-1.171 -1.171,-3.072 0,-4.243c1.171,-1.171 3.072,-1.171 4.243,0c1.171,1.171 1.171,3.072 -0,4.243Z" style="fill:#6366f1;"/></svg>