<?xml version="1.0" encoding="UTF-8" standalone="no"?><!DOCTYPE svg PUBLIC "-//W3C//DTD SVG 1.1//EN" "http://www.w3.org/Graphics/SVG/1.1/DTD/svg11.dtd"><svg width="32px" height="32px" version="1.1" xmlns="http://www.w3.org/2000/svg" xmlns:xlink="http://www.w3.org/1999/xlink" xml:space="preserve" xmlns:serif="http://www.serif.com/" style="fill-rule:evenodd;clip-rule:evenodd;stroke-linejoin:round;stroke-miterlimit:2;"><path d="M12.187,14.789l-4.163,4.163l-0,-1.951l8.977,-8.977l1.951,-0l-4.163,4.163c-1.234,0.392 -2.209,1.367 -2.601,2.601Zm6.111,-2.062l4.702,-4.702l0.976,-0l0,0.976l-4.702,4.702c-0.266,-0.379 -0.597,-0.709 -0.976,-0.976Zm1.515,4.485l4.163,-4.163l0,1.951l-8.977,8.977l-1.951,0l4.163,-4.163c1.234,-0.392 2.209,-1.367 2.601,-2.601Zm-6.111,2.062l-4.702,4.702l-0.976,0l-0,-0.976l4.702,-4.702c0.266,0.379 0.597,0.709 0.976,0.976Zm-5.678,-8.273l2.977,-2.977l1.951,-0l-4.928,4.928l-0,-1.951Zm11.024,12.976l4.928,-4.928l0,1.951l-2.977,2.977l-1.951,0Z" style="fill:#e4e6ea;"/><circle cx="16" cy="16" r="3" style="fill:#0fb881;"/><path d="M25.5,7l0,18c0,0.276 -0.224,0.5 -0.5,0.5l-18,0c-0.276,0 -0.5,-0.224 -0.5,-0.5l0,-18c-0,-0.276 0.224,-0.5 0.5,-0.5l18,0c0.276,-0 0.5,0.224 0.5,0.5Zm-1,0.5l-17,0l0,17l17,-0l0,-17Z" style="fill:#909194;"/></svg>