<?xml version="1.0" encoding="UTF-8" standalone="no"?><!DOCTYPE svg PUBLIC "-//W3C//DTD SVG 1.1//EN" "http://www.w3.org/Graphics/SVG/1.1/DTD/svg11.dtd"><svg width="100%" height="100%" viewBox="0 0 32 32" version="1.1" xmlns="http://www.w3.org/2000/svg" xmlns:xlink="http://www.w3.org/1999/xlink" xml:space="preserve" xmlns:serif="http://www.serif.com/" style="fill-rule:evenodd;clip-rule:evenodd;stroke-linecap:round;stroke-linejoin:round;stroke-miterlimit:1.5;"><path d="M12.456,8.654l0.126,2.67l-0.319,0c-0.062,-0.47 -0.146,-0.806 -0.252,-1.008c-0.174,-0.325 -0.404,-0.564 -0.693,-0.718c-0.288,-0.154 -0.667,-0.231 -1.138,-0.231l-1.604,0l0,8.698c0,0.7 0.076,1.136 0.227,1.31c0.213,0.235 0.54,0.353 0.982,0.353l0.395,0l0,0.311l-4.828,0l0,-0.311l0.403,0c0.481,0 0.823,-0.146 1.024,-0.437c0.123,-0.179 0.185,-0.588 0.185,-1.226l0,-8.698l-1.369,0c-0.532,0 -0.91,0.039 -1.133,0.118c-0.291,0.106 -0.54,0.311 -0.747,0.613c-0.207,0.302 -0.33,0.711 -0.369,1.226l-0.319,0l0.134,-2.67l9.294,0Z" style="fill:#e4e6ea;fill-rule:nonzero;"/><path d="M3.973,22.346l24.055,0" style="fill:none;stroke:#e4e6ea;stroke-width:2px;stroke-dasharray:0.2,3,0,0,0,0;"/></svg>