<?xml version="1.0" encoding="UTF-8" standalone="no"?><!DOCTYPE svg PUBLIC "-//W3C//DTD SVG 1.1//EN" "http://www.w3.org/Graphics/SVG/1.1/DTD/svg11.dtd"><svg width="100%" height="100%" viewBox="0 0 32 32" version="1.1" xmlns="http://www.w3.org/2000/svg" xmlns:xlink="http://www.w3.org/1999/xlink" xml:space="preserve" xmlns:serif="http://www.serif.com/" style="fill-rule:evenodd;clip-rule:evenodd;stroke-linejoin:round;stroke-miterlimit:2;"><path d="M5.37,17.495c0,-0.733 0.595,-1.329 1.329,-1.329c0.733,0 1.329,0.595 1.329,1.329c0,4.4 3.572,7.973 7.973,7.973c4.4,0 7.973,-3.572 7.973,-7.973c0,-4.4 -3.572,-7.973 -7.973,-7.973l-0,3.654l-7.973,-4.651l7.973,-4.651l0,2.99c5.867,0 10.63,4.763 10.63,10.63c0,5.867 -4.763,10.63 -10.63,10.63c-5.867,0 -10.63,-4.763 -10.63,-10.63Z" style="fill:#e4e6ea;"/></svg>