<?xml version="1.0" encoding="UTF-8" standalone="no"?><!DOCTYPE svg PUBLIC "-//W3C//DTD SVG 1.1//EN" "http://www.w3.org/Graphics/SVG/1.1/DTD/svg11.dtd"><svg width="100%" height="100%" viewBox="0 0 32 32" version="1.1" xmlns="http://www.w3.org/2000/svg" xmlns:xlink="http://www.w3.org/1999/xlink" xml:space="preserve" xmlns:serif="http://www.serif.com/" style="fill-rule:evenodd;clip-rule:evenodd;stroke-linejoin:round;stroke-miterlimit:2;"><path d="M17.225,25.444l2.275,0l-3.5,3.5l-3.5,-3.5l2.275,0l0,-2.389l2.45,0l0,2.389Z" style="fill:#0fb881;"/><path d="M7.667,22.056l14.195,0c0.265,0 0.52,-0.105 0.707,-0.293l2.472,-2.472c0.188,-0.188 0.293,-0.442 0.293,-0.707l0,-14.528c0,-0.552 -0.448,-1 -1,-1l-16.667,-0c-0.552,-0 -1,0.448 -1,1l0,17c-0,0.552 0.448,1 1,1Zm3.833,-2l-2.833,0l-0,-15l14.667,0l0,13.114l-1.833,1.833l0,-4.767c0,-0.375 -0.305,-0.68 -0.68,-0.68l-8.64,-0c-0.375,0 -0.68,0.305 -0.68,0.68l0,4.82Zm-0,-11c-0.276,0 -0.5,0.224 -0.5,0.5c0,0.276 0.224,0.5 0.5,0.5l9,0c0.276,0 0.5,-0.224 0.5,-0.5c0,-0.276 -0.224,-0.5 -0.5,-0.5l-9,-0Zm0,2c-0.276,-0 -0.5,0.224 -0.5,0.5c-0,0.276 0.224,0.5 0.5,0.5l9,0c0.276,-0 0.5,-0.224 0.5,-0.5c-0,-0.276 -0.224,-0.5 -0.5,-0.5l-9,-0Zm-0,-4c-0.276,-0 -0.5,0.224 -0.5,0.5c-0,0.276 0.224,0.5 0.5,0.5l9,0c0.276,-0 0.5,-0.224 0.5,-0.5c-0,-0.276 -0.224,-0.5 -0.5,-0.5l-9,-0Zm8,13l-2,0l0,-3.5l2,0l0,3.5Z" style="fill:#e4e6ea;"/></svg>