<?xml version="1.0" encoding="UTF-8" standalone="no"?><!DOCTYPE svg PUBLIC "-//W3C//DTD SVG 1.1//EN" "http://www.w3.org/Graphics/SVG/1.1/DTD/svg11.dtd"><svg width="100%" height="100%" viewBox="0 0 25 25" version="1.1" xmlns="http://www.w3.org/2000/svg" xmlns:xlink="http://www.w3.org/1999/xlink" xml:space="preserve" xmlns:serif="http://www.serif.com/" style="fill-rule:evenodd;clip-rule:evenodd;stroke-linejoin:round;stroke-miterlimit:2;"><path d="M6.781,7.239l0,-2.708c-0,-0.414 0.336,-0.75 0.75,-0.75l7.486,-0c0.199,0 0.393,0.08 0.535,0.225l3.679,3.75c0.139,0.142 0.215,0.331 0.215,0.525l-0,10.5c-0,0.414 -0.336,0.75 -0.75,0.75l-11.165,0c-0.414,0 -0.75,-0.336 -0.75,-0.75l0,-1.958l1.5,0l0,1.208l9.665,-0l0,-9l-2.929,0c-0.414,0 -0.75,-0.336 -0.75,-0.75l0,-3l-5.986,0l0,1.958l-1.5,-0Z" style="fill:#e4e6ea;"/><path d="M6.763,8.739l1.537,0l-0,2.523l2.523,-0l0,1.537l-2.523,0l0,2.523l-1.537,-0l0,-2.523l-2.523,0l-0,-1.537l2.523,0l0,-2.523Z" style="fill:#0fb881;"/></svg>