<?xml version="1.0" encoding="UTF-8" standalone="no"?><!DOCTYPE svg PUBLIC "-//W3C//DTD SVG 1.1//EN" "http://www.w3.org/Graphics/SVG/1.1/DTD/svg11.dtd"><svg width="100%" height="100%" viewBox="0 0 32 32" version="1.1" xmlns="http://www.w3.org/2000/svg" xmlns:xlink="http://www.w3.org/1999/xlink" xml:space="preserve" xmlns:serif="http://www.serif.com/" style="fill-rule:evenodd;clip-rule:evenodd;stroke-linejoin:round;stroke-miterlimit:2;"><path d="M14.775,8l-2.275,0l3.5,-3.5l3.5,3.5l-2.275,0l0,2.389l-2.45,0l0,-2.389Z" style="fill:#0fb881;"/><path d="M4,26.5l0,-14c-0,-0.552 0.448,-1 1,-1l18.667,0c0.552,0 1,0.448 1,1l0,4.889l4.333,0c0.368,-0 0.706,0.202 0.88,0.525c0.175,0.324 0.157,0.717 -0.045,1.024c0,0 -5.333,8.111 -5.333,8.111c-0.182,0.276 -0.493,0.451 -0.836,0.451l-18.667,0c-0.374,-0 -0.708,-0.207 -0.88,-0.525c-0.078,-0.145 -0.12,-0.307 -0.12,-0.475Zm18.667,-9.111l0,-3.889l-16.667,0l-0,9.659l3.498,-5.32c0.185,-0.281 0.499,-0.451 0.836,-0.451l12.333,0Z" style="fill:#e4e6ea;"/></svg>