<?xml version="1.0" encoding="UTF-8" standalone="no"?><!DOCTYPE svg PUBLIC "-//W3C//DTD SVG 1.1//EN" "http://www.w3.org/Graphics/SVG/1.1/DTD/svg11.dtd"><svg width="100%" height="100%" viewBox="0 0 32 32" version="1.1" xmlns="http://www.w3.org/2000/svg" xmlns:xlink="http://www.w3.org/1999/xlink" xml:space="preserve" xmlns:serif="http://www.serif.com/" style="fill-rule:evenodd;clip-rule:evenodd;stroke-linejoin:round;stroke-miterlimit:2;"><path d="M16,5c6.071,0 11,4.929 11,11c0,6.071 -4.929,11 -11,11c-6.071,0 -11,-4.929 -11,-11c0,-6.071 4.929,-11 11,-11Zm-1.801,11l-4.271,4.271c-0.497,0.497 -0.497,1.304 -0,1.801c0.497,0.497 1.304,0.497 1.801,0l4.271,-4.271l4.271,4.271c0.497,0.497 1.304,0.497 1.801,0c0.497,-0.497 0.497,-1.304 0,-1.801l-4.271,-4.271l4.271,-4.271c0.497,-0.497 0.497,-1.304 -0,-1.801c-0.497,-0.497 -1.304,-0.497 -1.801,0l-4.271,4.271l-4.271,-4.271c-0.497,-0.497 -1.304,-0.497 -1.801,0c-0.497,0.497 -0.497,1.304 0,1.801l4.271,4.271Z" style="fill:#de1a4a;"/></svg>