<?xml version="1.0" encoding="UTF-8" standalone="no"?><!DOCTYPE svg PUBLIC "-//W3C//DTD SVG 1.1//EN" "http://www.w3.org/Graphics/SVG/1.1/DTD/svg11.dtd"><svg width="100%" height="100%" viewBox="0 0 32 32" version="1.1" xmlns="http://www.w3.org/2000/svg" xmlns:xlink="http://www.w3.org/1999/xlink" xml:space="preserve" xmlns:serif="http://www.serif.com/" style="fill-rule:evenodd;clip-rule:evenodd;stroke-linejoin:round;stroke-miterlimit:2;"><path d="M7.875,13.004c0.508,0.047 0.906,0.475 0.906,0.996c0,0.52 -0.398,0.948 -0.906,0.996c0.082,-0.318 0.125,-0.652 0.125,-0.996c0,-0.344 -0.043,-0.677 -0.125,-0.996Zm-2.879,4.871c-0.047,0.508 -0.475,0.906 -0.996,0.906c-0.52,0 -0.948,-0.398 -0.996,-0.906c0.318,0.082 0.652,0.125 0.996,0.125c0.344,0 0.677,-0.043 0.996,-0.125Zm10.003,-4.875l1.001,1.001l-0,0.113c0,0.552 -0.448,1 -1,1c-0.305,0 -0.578,-0.137 -0.762,-0.353c-0.216,-0.183 -0.353,-0.457 -0.353,-0.762c0,-0.552 0.448,-1 1,-1l0.113,0Zm-0.761,11.238c0.183,-0.216 0.457,-0.353 0.762,-0.353c0.552,0 1,0.448 1,1l0,0.113l-1,1.001l-0.115,0c-0.552,0 -1,-0.448 -1,-1c0,-0.305 0.137,-0.578 0.353,-0.762Zm-9.476,0c0.216,0.183 0.353,0.457 0.353,0.762c0,0.552 -0.448,1 -1,1l-0.115,0l-1,-1.001l0,-0.113c0,-0.552 0.448,-1 1,-1c0.305,0 0.578,0.137 0.762,0.353Zm9.238,-6.686c0,-0.552 0.448,-1 1,-1c0.552,0 1,0.448 1,1l0,0.229c0,0.552 -0.448,1 -1,1c-0.552,0 -1,-0.448 -1,-1l0,-0.229Zm0,3.667c0,-0.552 0.448,-1 1,-1c0.552,0 1,0.448 1,1l0,0.229c0,0.552 -0.448,1 -1,1c-0.552,0 -1,-0.448 -1,-1l0,-0.229Zm-2.552,2.781c0.552,0 1,0.448 1,1c0,0.552 -0.448,1 -1,1l-0.229,0c-0.552,0 -1,-0.448 -1,-1c0,-0.552 0.448,-1 1,-1l0.229,0Zm-3.667,0c0.552,0 1,0.448 1,1c0,0.552 -0.448,1 -1,1l-0.229,0c-0.552,0 -1,-0.448 -1,-1c0,-0.552 0.448,-1 1,-1l0.229,0Zm-2.781,-2.552c0,0.552 -0.448,1 -1,1c-0.552,0 -1,-0.448 -1,-1l-0,-0.229c-0,-0.552 0.448,-1 1,-1c0.552,0 1,0.448 1,1l0,0.229Zm6.219,-6.448c-0.552,0 -1,-0.448 -1,-1c0,-0.552 0.448,-1 1,-1l0.229,0c0.552,0 1,0.448 1,1c0,0.552 -0.448,1 -1,1l-0.229,0Z" style="fill:#909194;"/><path d="M21,7l8,-0l0,12l-12,0l0,-8c2.208,0 4,-1.792 4,-4Z" style="fill:#e4e6ea;"/><circle cx="4" cy="14" r="3" style="fill:#6366f1;"/><circle cx="17" cy="7" r="3" style="fill:#0fb881;"/></svg>