<?xml version="1.0" encoding="UTF-8" standalone="no"?><!DOCTYPE svg PUBLIC "-//W3C//DTD SVG 1.1//EN" "http://www.w3.org/Graphics/SVG/1.1/DTD/svg11.dtd"><svg width="100%" height="100%" viewBox="0 0 32 32" version="1.1" xmlns="http://www.w3.org/2000/svg" xmlns:xlink="http://www.w3.org/1999/xlink" xml:space="preserve" xmlns:serif="http://www.serif.com/" style="fill-rule:evenodd;clip-rule:evenodd;stroke-linejoin:round;stroke-miterlimit:2;"><path d="M19.772,22.235c-0.489,4.228 -4.085,7.515 -8.443,7.515c-4.691,0 -8.5,-3.809 -8.5,-8.5c0,-0.873 0.132,-1.715 0.377,-2.508c0.68,0.533 1.536,0.852 2.466,0.852c2.208,0 4,-1.792 4,-4c0,-0.93 -0.318,-1.787 -0.852,-2.466c0.49,-0.151 1,-0.26 1.524,-0.32c0.279,5.076 4.352,9.149 9.428,9.428Z" style="fill:#909194;"/><path d="M18.116,4.56c0.703,-0.202 1.445,-0.31 2.212,-0.31c4.415,0 8,3.585 8,8c0,4.415 -3.585,8 -8,8c-4.415,0 -8,-3.585 -8,-8c0,-0.767 0.108,-1.509 0.31,-2.212c0.596,0.353 1.291,0.555 2.033,0.555c2.208,0 4,-1.792 4,-4c0,-0.742 -0.202,-1.437 -0.555,-2.033Z" style="fill:#e4e6ea;"/><circle cx="14.672" cy="6.593" r="3" style="fill:#0fb881;"/><circle cx="5.672" cy="15.593" r="3" style="fill:#6366f1;"/></svg>