<?xml version="1.0" encoding="UTF-8" standalone="no"?><!DOCTYPE svg PUBLIC "-//W3C//DTD SVG 1.1//EN" "http://www.w3.org/Graphics/SVG/1.1/DTD/svg11.dtd"><svg width="100%" height="100%" viewBox="0 0 61 66" version="1.1" xmlns="http://www.w3.org/2000/svg" xmlns:xlink="http://www.w3.org/1999/xlink" xml:space="preserve" xmlns:serif="http://www.serif.com/" style="fill-rule:evenodd;clip-rule:evenodd;stroke-linejoin:round;stroke-miterlimit:2;"><path d="M3.865,62.5l0,-59.375c0,-1.725 1.4,-3.125 3.125,-3.125l31.191,0c0.831,0 1.638,0.331 2.231,0.938l15.328,15.625c0.578,0.591 0.894,1.378 0.894,2.188l0,43.75c0,1.725 -1.4,3.125 -3.125,3.125l-46.519,0c-1.725,0 -3.125,-1.4 -3.125,-3.125Z" style="fill:#f2f3f5;"/><path d="M3.865,62.5l0,-59.375c0,-1.725 1.4,-3.125 3.125,-3.125l31.191,0c0.831,0 1.638,0.331 2.231,0.938l15.328,15.625c0.578,0.591 0.894,1.378 0.894,2.188l0,43.75c0,1.725 -1.4,3.125 -3.125,3.125l-46.519,0c-1.725,0 -3.125,-1.4 -3.125,-3.125Zm2.302,-0c0,0.454 0.369,0.823 0.823,0.823l46.519,0c0.454,0 0.823,-0.369 0.823,-0.823l0,-43.75c0,-0.214 -0.084,-0.421 -0.237,-0.577l-15.327,-15.624c-0.156,-0.159 -0.369,-0.247 -0.587,-0.247l-31.191,0c-0.454,0 -0.823,0.369 -0.823,0.823l0,59.375Zm40.045,-12.589c0,0.737 -0.597,1.334 -1.334,1.334l-25.126,0c-0.54,0 -1.026,-0.325 -1.233,-0.824c-0.207,-0.499 -0.092,-1.073 0.289,-1.454l25.126,-25.126c0.382,-0.382 0.956,-0.496 1.454,-0.289c0.499,0.207 0.824,0.693 0.824,1.233l0,25.126Zm-4.542,-17.383l-14.176,14.176l14.176,0l0,-14.176Z" style="fill:#1e1e1e;"/><path d="M14.286,20.654c0,-0.737 0.597,-1.334 1.334,-1.334l25.126,0c0.54,0 1.026,0.325 1.233,0.824c0.207,0.499 0.092,1.073 -0.289,1.454l-25.126,25.126c-0.382,0.382 -0.956,0.496 -1.454,0.289c-0.499,-0.207 -0.824,-0.693 -0.824,-1.233l0,-25.126l-0,0Zm4.542,17.383l14.176,-14.176l-14.176,0l0,14.176Z" style="fill:#0fb881;"/></svg>