<?xml version="1.0" encoding="UTF-8" standalone="no"?><!DOCTYPE svg PUBLIC "-//W3C//DTD SVG 1.1//EN" "http://www.w3.org/Graphics/SVG/1.1/DTD/svg11.dtd"><svg width="32px" height="32px" version="1.1" xmlns="http://www.w3.org/2000/svg" xmlns:xlink="http://www.w3.org/1999/xlink" xml:space="preserve" xmlns:serif="http://www.serif.com/" style="fill-rule:evenodd;clip-rule:evenodd;stroke-linejoin:round;stroke-miterlimit:2;"><path d="M5,24.126l0,-13.126c0,-0.552 0.448,-1 1,-1c0.552,0 1,0.448 1,1l0,1.5l18,0l0,-1.5c0,-0.552 0.448,-1 1,-1c0.552,0 1,0.448 1,1l0,5.126c-0.32,-0.082 -0.655,-0.126 -1,-0.126c-0.345,0 -0.68,0.044 -1,0.126l0,-1.626l-18,0l-0,9.626c-0.32,-0.082 -0.655,-0.126 -1,-0.126c-0.345,0 -0.68,0.044 -1,0.126Zm11,-16.232c-0.737,1.189 -1.392,2.248 -1.608,2.549c-0.36,0.496 -0.745,0.661 -1.155,0.494c-0.364,-0.154 -0.779,-0.7 -1.242,-1.636c-0.035,-0.082 -0.043,-0.158 -0.025,-0.226c0.037,-0.136 0.127,-0.185 0.271,-0.147c0.083,0.022 0.155,0.074 0.214,0.155c0.231,0.289 0.403,0.449 0.517,0.479c0.182,0.049 0.388,-0.071 0.619,-0.358c0.278,-0.429 0.901,-1.481 1.582,-2.64c-0.86,-1.374 -1.657,-2.616 -1.856,-2.777c-0.195,-0.151 -0.349,-0.211 -0.462,-0.181c-0.114,0.03 -0.259,0.155 -0.436,0.373c-0.075,0.085 -0.15,0.138 -0.226,0.158c-0.114,0.03 -0.183,0 -0.207,-0.091c-0.026,-0.098 0.014,-0.219 0.122,-0.362c0.555,-0.685 0.981,-1.156 1.277,-1.414c0.217,-0.188 0.36,-0.291 0.428,-0.31c0.159,-0.043 0.32,0.056 0.481,0.297c0.105,0.151 0.859,1.446 1.705,2.893c0.845,-1.447 1.599,-2.742 1.705,-2.893c0.162,-0.241 0.322,-0.34 0.481,-0.297c0.068,0.018 0.211,0.121 0.428,0.31c0.296,0.258 0.722,0.729 1.277,1.414c0.108,0.143 0.149,0.263 0.122,0.362c-0.024,0.091 -0.093,0.121 -0.207,0.091c-0.076,-0.02 -0.151,-0.073 -0.226,-0.158c-0.177,-0.218 -0.322,-0.342 -0.436,-0.373c-0.114,-0.03 -0.268,0.03 -0.462,0.181c-0.199,0.161 -0.996,1.403 -1.856,2.777c0.681,1.16 1.304,2.211 1.582,2.64c0.231,0.287 0.438,0.406 0.619,0.358c0.114,-0.03 0.286,-0.19 0.517,-0.479c0.06,-0.081 0.131,-0.132 0.214,-0.155c0.144,-0.039 0.234,0.01 0.271,0.147c0.018,0.068 0.01,0.143 -0.025,0.226c-0.464,0.936 -0.878,1.481 -1.242,1.636c-0.41,0.167 -0.795,0.002 -1.155,-0.494c-0.216,-0.301 -0.871,-1.36 -1.608,-2.549Z" style="fill:#e4e6ea;"/><path d="M9.715,26.514l12.571,-5.028c0.59,1.473 2.032,2.514 3.715,2.514l-0,4l-16,0c0,-0.525 -0.101,-1.026 -0.285,-1.486Z" style="fill:#909194;"/><circle cx="6" cy="28" r="3" style="fill:#0fb881;"/><circle cx="26" cy="20" r="3" style="fill:#6366f1;"/></svg>