<?xml version="1.0" encoding="UTF-8" standalone="no"?><!DOCTYPE svg PUBLIC "-//W3C//DTD SVG 1.1//EN" "http://www.w3.org/Graphics/SVG/1.1/DTD/svg11.dtd"><svg width="32px" height="32px" version="1.1" xmlns="http://www.w3.org/2000/svg" xmlns:xlink="http://www.w3.org/1999/xlink" xml:space="preserve" xmlns:serif="http://www.serif.com/" style="fill-rule:evenodd;clip-rule:evenodd;stroke-linejoin:round;stroke-miterlimit:2;"><path d="M4.54,20.68c0.216,-0.687 0.492,-1.348 0.822,-1.976l0.875,0.505c0.239,0.138 0.545,0.056 0.683,-0.183c0.138,-0.239 0.056,-0.545 -0.183,-0.683l-0.873,-0.504c0.384,-0.604 0.821,-1.171 1.304,-1.695l0.711,0.711c0.195,0.195 0.512,0.195 0.707,0c0.195,-0.195 0.195,-0.512 0,-0.707l-0.711,-0.711c0.525,-0.482 1.092,-0.919 1.696,-1.303l0.503,0.871c0.138,0.239 0.444,0.321 0.683,0.183c0.239,-0.138 0.321,-0.444 0.183,-0.683l-0.503,-0.872c0.628,-0.329 1.289,-0.604 1.976,-0.819l0.261,0.973c0.071,0.267 0.346,0.425 0.612,0.354c0.267,-0.071 0.425,-0.346 0.354,-0.612l-0.261,-0.973c0.687,-0.153 1.395,-0.247 2.121,-0.277l0,2.004c0,0.276 0.224,0.5 0.5,0.5c0.276,-0 0.5,-0.224 0.5,-0.5l-0,-2.004c0.725,0.03 1.434,0.124 2.121,0.277l-0.261,0.973c-0.071,0.267 0.087,0.541 0.354,0.612c0.267,0.071 0.541,-0.087 0.612,-0.354l0.261,-0.973c0.687,0.215 1.348,0.49 1.976,0.819l-0.503,0.872c-0.138,0.239 -0.056,0.545 0.183,0.683c0.239,0.138 0.545,0.056 0.683,-0.183l0.503,-0.871c0.604,0.384 1.172,0.82 1.696,1.303l-0.71,0.71c-0.195,0.195 -0.195,0.512 0,0.707c0.195,0.195 0.512,0.195 0.707,-0l0.71,-0.71c0.483,0.524 0.919,1.092 1.303,1.696l-0.871,0.503c-0.239,0.138 -0.321,0.444 -0.183,0.683c0.138,0.239 0.444,0.321 0.683,0.183l0.872,-0.503c0.329,0.628 0.604,1.289 0.819,1.976l-1.939,0.52c-0.267,0.071 -0.425,0.346 -0.354,0.612c0.071,0.267 0.346,0.425 0.612,0.354l1.938,-0.519c0.106,0.478 0.184,0.967 0.232,1.464c0.025,0.296 -0.075,0.588 -0.276,0.806c-0.201,0.218 -0.484,0.343 -0.78,0.343c-4.017,0.007 -17.76,0.007 -21.777,0.007c-0.299,0 -0.584,-0.125 -0.787,-0.345c-0.202,-0.22 -0.303,-0.515 -0.278,-0.812c0.048,-0.498 0.127,-0.987 0.234,-1.465l1.945,0.521c0.267,0.071 0.541,-0.087 0.612,-0.354c0.071,-0.267 -0.087,-0.541 -0.354,-0.612l-1.944,-0.521Zm18.388,-0.412c-1.384,-2.39 -3.97,-4 -6.928,-4c-2.959,0 -5.544,1.61 -6.928,4l13.857,0Z" style="fill:#e4e6ea;"/><path d="M10.556,6.541c1.721,-0.526 3.547,-0.809 5.44,-0.809c1.887,0 3.71,0.282 5.427,0.805c-0.378,0.574 -0.612,1.251 -0.651,1.98c-1.512,-0.457 -3.116,-0.702 -4.776,-0.702c-1.639,0 -3.223,0.239 -4.719,0.685c-0.064,-0.726 -0.321,-1.396 -0.721,-1.959Z" style="fill:#909194;"/><circle cx="7.293" cy="8.853" r="3" style="fill:#0fb881;"/><circle cx="24.766" cy="8.731" r="3" style="fill:#6366f1;"/></svg>