<?xml version="1.0" encoding="UTF-8" standalone="no"?><!DOCTYPE svg PUBLIC "-//W3C//DTD SVG 1.1//EN" "http://www.w3.org/Graphics/SVG/1.1/DTD/svg11.dtd"><svg width="32px" height="32px" version="1.1" xmlns="http://www.w3.org/2000/svg" xmlns:xlink="http://www.w3.org/1999/xlink" xml:space="preserve" xmlns:serif="http://www.serif.com/" style="fill-rule:evenodd;clip-rule:evenodd;stroke-linejoin:round;stroke-miterlimit:2;"><path d="M27.5,16.5l0.616,-0c0.488,0 0.884,0.396 0.884,0.884l0,4.233c-0,0.488 -0.396,0.884 -0.884,0.884l-24.233,-0c-0.488,-0 -0.884,-0.396 -0.884,-0.884l-0,-4.233c0,-0.488 0.396,-0.884 0.884,-0.884l0.616,-0l0,3c0,0.276 0.224,0.5 0.5,0.5c0.276,-0 0.5,-0.224 0.5,-0.5l-0,-3l1.554,-0l0,1.485c-0,0.276 0.224,0.5 0.5,0.5c0.276,0 0.5,-0.224 0.5,-0.5l-0,-1.485l1.554,-0l0,1.5c0,0.276 0.224,0.5 0.5,0.5c0.276,-0 0.5,-0.224 0.5,-0.5l-0,-1.5l1.554,-0l0,1.5c-0,0.276 0.224,0.5 0.5,0.5c0.276,0 0.5,-0.224 0.5,-0.5l-0,-1.5l1.554,0l0,1.5c-0,0.276 0.224,0.5 0.5,0.5c0.276,0 0.5,-0.224 0.5,-0.5l-0,-1.5l1.357,-0l0,3c0,0.276 0.224,0.5 0.5,0.5c0.276,-0 0.5,-0.224 0.5,-0.5l-0,-3l1.357,0l0,1.485c-0,0.276 0.224,0.5 0.5,0.5c0.276,0 0.5,-0.224 0.5,-0.5l-0,-1.485l1.357,-0l0,1.5c0,0.276 0.224,0.5 0.5,0.5c0.276,-0 0.5,-0.224 0.5,-0.5l-0,-1.5l1.357,-0l0,1.5c0,0.276 0.224,0.5 0.5,0.5c0.276,-0 0.5,-0.224 0.5,-0.5l-0,-1.5l1.357,-0l0,1.5c-0,0.276 0.224,0.5 0.5,0.5c0.276,0 0.5,-0.224 0.5,-0.5l-0,-1.5Z" style="fill:#e4e6ea;"/><path d="M8.863,10.458l14.274,0c-0.089,0.332 -0.137,0.681 -0.137,1.042c0,0.36 0.048,0.709 0.137,1.042l-14.274,0c0.089,-0.332 0.137,-0.681 0.137,-1.042c0,-0.36 -0.048,-0.709 -0.137,-1.042Z" style="fill:#909194;"/><circle cx="5" cy="11.5" r="3" style="fill:#0fb881;"/><circle cx="27" cy="11.5" r="3" style="fill:#6366f1;"/></svg>