<?xml version="1.0" encoding="UTF-8" standalone="no"?><!DOCTYPE svg PUBLIC "-//W3C//DTD SVG 1.1//EN" "http://www.w3.org/Graphics/SVG/1.1/DTD/svg11.dtd"><svg width="32px" height="32px" version="1.1" xmlns="http://www.w3.org/2000/svg" xmlns:xlink="http://www.w3.org/1999/xlink" xml:space="preserve" xmlns:serif="http://www.serif.com/" style="fill-rule:evenodd;clip-rule:evenodd;stroke-linejoin:round;stroke-miterlimit:2;"><path d="M21.126,24l-15.126,0c-0.552,0 -1,-0.448 -1,-1l0,-0.509l1.492,-0c0.276,0 0.5,-0.224 0.5,-0.5c0,-0.276 -0.224,-0.5 -0.5,-0.5l-1.492,0l0,-1.554l1.492,-0c0.276,0 0.5,-0.224 0.5,-0.5c0,-0.276 -0.224,-0.5 -0.5,-0.5l-1.492,0l0,-1.357l2.992,-0c0.276,-0 0.5,-0.224 0.5,-0.5c-0,-0.276 -0.224,-0.5 -0.5,-0.5l-2.992,0l0,-1.357l1.477,-0c0.276,0 0.5,-0.224 0.5,-0.5c0,-0.276 -0.224,-0.5 -0.5,-0.5l-1.477,0l0,-1.759c0.588,0.341 1.272,0.536 2,0.536c2.208,0 4,-1.792 4,-4c0,-0.345 -0.044,-0.68 -0.126,-1l1.787,0l0,1.269c-0,0.276 0.224,0.5 0.5,0.5c0.276,0 0.5,-0.224 0.5,-0.5l-0,-1.269l1.554,0l0,1.269c-0,0.276 0.224,0.5 0.5,0.5c0.276,0 0.5,-0.224 0.5,-0.5l-0,-1.269l1.357,0l0,2.769c0,0.276 0.224,0.5 0.5,0.5c0.276,-0 0.5,-0.224 0.5,-0.5l-0,-2.769l1.357,0l0,1.254c-0,0.276 0.224,0.5 0.5,0.5c0.276,0 0.5,-0.224 0.5,-0.5l-0,-1.254l1.357,0l0,1.269c0,0.276 0.224,0.5 0.5,0.5c0.276,-0 0.5,-0.224 0.5,-0.5l-0,-1.269l1.357,0l0,1.269c0,0.276 0.224,0.5 0.5,0.5c0.276,-0 0.5,-0.224 0.5,-0.5l-0,-1.269l0.357,0c0.552,-0 1,0.448 1,1l0,10.536c-0.588,-0.341 -1.272,-0.536 -2,-0.536c-2.208,0 -4,1.792 -4,4c0,0.345 0.044,0.68 0.126,1Z" style="fill:#e4e6ea;"/><circle cx="25" cy="23" r="3" style="fill:#6366f1;"/><circle cx="7" cy="9" r="3" style="fill:#0fb881;"/></svg>