<?xml version="1.0" encoding="UTF-8" standalone="no"?><!DOCTYPE svg PUBLIC "-//W3C//DTD SVG 1.1//EN" "http://www.w3.org/Graphics/SVG/1.1/DTD/svg11.dtd"><svg width="100%" height="100%" viewBox="0 0 32 32" version="1.1" xmlns="http://www.w3.org/2000/svg" xmlns:xlink="http://www.w3.org/1999/xlink" xml:space="preserve" xmlns:serif="http://www.serif.com/" style="fill-rule:evenodd;clip-rule:evenodd;stroke-linejoin:round;stroke-miterlimit:2;"><path d="M13.381,4.891l0.757,1.47c0.483,0.135 0.949,0.327 1.386,0.574l1.574,-0.504c0.478,0.374 0.908,0.805 1.282,1.282l-0.504,1.574c0.247,0.437 0.439,0.902 0.574,1.386l1.47,0.757c0.073,0.602 0.073,1.211 0,1.813l-1.47,0.757c-0.135,0.483 -0.327,0.949 -0.574,1.386l0.504,1.574c-0.374,0.478 -0.805,0.908 -1.282,1.282l-1.574,-0.504c-0.437,0.247 -0.902,0.439 -1.386,0.574l-0.757,1.47c-0.602,0.073 -1.211,0.073 -1.813,0l-0.757,-1.47c-0.483,-0.135 -0.949,-0.327 -1.386,-0.574l-1.574,0.504c-0.478,-0.374 -0.908,-0.805 -1.282,-1.282l0.504,-1.574c-0.247,-0.437 -0.439,-0.902 -0.574,-1.386l-1.47,-0.757c-0.073,-0.602 -0.073,-1.211 0,-1.813l1.47,-0.757c0.135,-0.483 0.327,-0.949 0.574,-1.386l-0.504,-1.574c0.374,-0.478 0.805,-0.908 1.282,-1.282l1.574,0.504c0.437,-0.247 0.902,-0.439 1.386,-0.574l0.757,-1.47c0.602,-0.073 1.211,-0.073 1.813,0Zm-0.907,3.335c2.268,0 4.11,1.842 4.11,4.11c0,2.268 -1.842,4.11 -4.11,4.11c-2.268,0 -4.11,-1.842 -4.11,-4.11c0,-2.268 1.842,-4.11 4.11,-4.11Z" style="fill:#909194;"/><path d="M20.465,15.697l0.725,1.22c0.549,0.03 1.086,0.174 1.577,0.423l1.238,-0.694c0.463,0.332 0.869,0.737 1.2,1.2l-0.694,1.238c0.249,0.491 0.393,1.028 0.423,1.577l1.22,0.725c-0.056,0.567 -0.204,1.121 -0.439,1.64l-1.419,0.018c-0.301,0.461 -0.694,0.854 -1.154,1.154l-0.018,1.419c-0.519,0.235 -1.073,0.384 -1.64,0.439l-0.725,-1.22c-0.549,-0.03 -1.086,-0.174 -1.577,-0.423l-1.238,0.694c-0.463,-0.332 -0.869,-0.737 -1.2,-1.2l0.694,-1.238c-0.249,-0.491 -0.393,-1.028 -0.423,-1.577l-1.22,-0.725c0.056,-0.567 0.204,-1.121 0.439,-1.64l1.419,-0.018c0.301,-0.461 0.694,-0.854 1.154,-1.154l0.018,-1.419c0.519,-0.235 1.073,-0.384 1.64,-0.439Zm-0.09,2.943c1.234,-0.331 2.504,0.403 2.835,1.637c0.331,1.234 -0.403,2.504 -1.637,2.835c-1.234,0.331 -2.504,-0.403 -2.835,-1.637c-0.331,-1.234 0.403,-2.504 1.637,-2.835Z" style="fill:#e4e6ea;"/></svg>