<?xml version="1.0" encoding="UTF-8" standalone="no"?><!DOCTYPE svg PUBLIC "-//W3C//DTD SVG 1.1//EN" "http://www.w3.org/Graphics/SVG/1.1/DTD/svg11.dtd"><svg width="32px" height="32px" version="1.1" xmlns="http://www.w3.org/2000/svg" xmlns:xlink="http://www.w3.org/1999/xlink" xml:space="preserve" xmlns:serif="http://www.serif.com/" style="fill-rule:evenodd;clip-rule:evenodd;"><path d="M7.557,22.506l0,-19c-0,-0.552 0.448,-1 1,-1l9.981,-0c0.266,0 0.524,0.106 0.714,0.3l4.905,5c0.185,0.189 0.286,0.441 0.286,0.7l-0,14c-0,0.552 -0.448,1 -1,1l-14.886,0c-0.552,0 -1,-0.448 -1,-1Z" style="fill:#e4e6ea;"/><g><path id="base" d="M9.173,12.795l13.654,0l0,4.825c0,1.134 -0.868,2.002 -2.002,2.002l-9.65,0c-1.134,0 -2.002,-0.868 -2.002,-2.002l0,-4.825Z" style="fill-rule:nonzero;"/><g id="svgstar"><path id="svgbar" d="M11.94,12.03c-0.203,-0.203 -0.478,-0.317 -0.765,-0.317c-0.593,0 -1.082,0.488 -1.082,1.082c0,0.593 0.488,1.082 1.082,1.082c0.287,0 0.562,-0.114 0.765,-0.317l8.12,0c0.203,0.203 0.478,0.317 0.765,0.317c0.593,0 1.082,-0.488 1.082,-1.082c0,-0.593 -0.488,-1.082 -1.082,-1.082c-0.287,0 -0.562,0.114 -0.765,0.317l-8.12,-0Z" style="fill:#ffb13b;fill-rule:nonzero;stroke:#000;stroke-width:1.83px;"/><path id="svgbar1" serif:id="svgbar" d="M13.67,9.383c-0,-0.287 -0.114,-0.562 -0.317,-0.765c-0.42,-0.42 -1.11,-0.42 -1.53,0c-0.42,0.42 -0.42,1.11 -0,1.53c0.203,0.203 0.478,0.317 0.765,0.317l5.742,5.742c0,0.287 0.114,0.562 0.317,0.765c0.42,0.42 1.11,0.42 1.53,0c0.42,-0.42 0.42,-1.11 0,-1.53c-0.203,-0.203 -0.478,-0.317 -0.765,-0.317l-5.742,-5.742Z" style="fill:#ffb13b;fill-rule:nonzero;stroke:#000;stroke-width:1.83px;"/><path id="svgbar2" serif:id="svgbar" d="M16.765,8.735c0.203,-0.203 0.317,-0.478 0.317,-0.765c0,-0.593 -0.488,-1.082 -1.082,-1.082c-0.593,0 -1.082,0.488 -1.082,1.082c0,0.287 0.114,0.562 0.317,0.765l-0,8.12c-0.203,0.203 -0.317,0.478 -0.317,0.765c0,0.593 0.488,1.082 1.082,1.082c0.593,0 1.082,-0.488 1.082,-1.082c0,-0.287 -0.114,-0.562 -0.317,-0.765l0,-8.12Z" style="fill:#ffb13b;fill-rule:nonzero;stroke:#000;stroke-width:1.83px;"/><path id="svgbar3" serif:id="svgbar" d="M19.412,10.465c0.287,-0 0.562,-0.114 0.765,-0.317c0.42,-0.42 0.42,-1.11 0,-1.53c-0.42,-0.42 -1.11,-0.42 -1.53,0c-0.203,0.203 -0.317,0.478 -0.317,0.765l-5.742,5.742c-0.287,0 -0.562,0.114 -0.765,0.317c-0.42,0.42 -0.42,1.11 0,1.53c0.42,0.42 1.11,0.42 1.53,0c0.203,-0.203 0.317,-0.478 0.317,-0.765l5.742,-5.742Z" style="fill:#ffb13b;fill-rule:nonzero;stroke:#000;stroke-width:1.83px;"/></g><path id="svgbar4" serif:id="svgbar" d="M11.94,12.03c-0.203,-0.203 -0.478,-0.317 -0.765,-0.317c-0.593,0 -1.082,0.488 -1.082,1.082c0,0.593 0.488,1.082 1.082,1.082c0.287,0 0.562,-0.114 0.765,-0.317l8.12,0c0.203,0.203 0.478,0.317 0.765,0.317c0.593,0 1.082,-0.488 1.082,-1.082c0,-0.593 -0.488,-1.082 -1.082,-1.082c-0.287,0 -0.562,0.114 -0.765,0.317l-8.12,-0Z" style="fill:#ffb13b;fill-rule:nonzero;"/><path id="svgbar5" serif:id="svgbar" d="M13.67,9.383c-0,-0.287 -0.114,-0.562 -0.317,-0.765c-0.42,-0.42 -1.11,-0.42 -1.53,-0c-0.42,0.42 -0.42,1.11 0,1.53c0.203,0.203 0.478,0.317 0.765,0.317l5.742,5.742c0,0.287 0.114,0.562 0.317,0.765c0.42,0.42 1.11,0.42 1.53,0c0.42,-0.42 0.42,-1.11 0,-1.53c-0.203,-0.203 -0.478,-0.317 -0.765,-0.317l-5.742,-5.742Z" style="fill:#ffb13b;fill-rule:nonzero;"/><path id="svgbar6" serif:id="svgbar" d="M16.765,8.735c0.203,-0.203 0.317,-0.478 0.317,-0.765c0,-0.593 -0.488,-1.082 -1.082,-1.082c-0.593,0 -1.082,0.488 -1.082,1.082c0,0.287 0.114,0.562 0.317,0.765l-0,8.12c-0.203,0.203 -0.317,0.478 -0.317,0.765c0,0.593 0.488,1.082 1.082,1.082c0.593,0 1.082,-0.488 1.082,-1.082c0,-0.287 -0.114,-0.562 -0.317,-0.765l0,-8.12Z" style="fill:#ffb13b;fill-rule:nonzero;"/><path id="svgbar7" serif:id="svgbar" d="M19.412,10.465c0.287,-0 0.562,-0.114 0.765,-0.317c0.42,-0.42 0.42,-1.11 0,-1.53c-0.42,-0.42 -1.11,-0.42 -1.53,-0c-0.203,0.203 -0.317,0.478 -0.317,0.765l-5.742,5.742c-0.287,0 -0.562,0.114 -0.765,0.317c-0.42,0.42 -0.42,1.11 -0,1.53c0.42,0.42 1.11,0.42 1.53,0c0.203,-0.203 0.317,-0.478 0.317,-0.765l5.742,-5.742Z" style="fill:#ffb13b;fill-rule:nonzero;"/><path id="base1" serif:id="base" d="M9.173,12.795l13.654,0l0,4.825c0,1.134 -0.868,2.002 -2.002,2.002l-9.65,0c-1.134,0 -2.002,-0.868 -2.002,-2.002l0,-4.825Z" style="fill-opacity:0.85;fill-rule:nonzero;"/><path id="S" d="M11.222,16.203c-0.32,-0.32 -0.518,-0.762 -0.518,-1.251c0,-0.977 0.793,-1.769 1.769,-1.769c0.977,0 1.77,0.792 1.77,1.769l-1.036,0c0,-0.405 -0.328,-0.733 -0.733,-0.733c-0.405,0 -0.733,0.328 -0.733,0.733c0,0.202 0.082,0.385 0.214,0.518l0,0c0.133,0.133 0.243,0.172 0.518,0.215c0.489,0.051 0.931,0.198 1.251,0.518c0.32,0.32 0.518,0.762 0.518,1.251c0,0.977 -0.793,1.77 -1.77,1.77c-0.977,0 -1.769,-0.793 -1.769,-1.77l1.036,0c0,0.405 0.328,0.733 0.733,0.733c0.405,0 0.733,-0.328 0.733,-0.733c0,-0.202 -0.082,-0.385 -0.214,-0.518l-0,0c-0.133,-0.133 -0.323,-0.178 -0.518,-0.215l0,-0c-0.474,-0.073 -0.931,-0.198 -1.251,-0.518Z" style="fill:#fff;fill-rule:nonzero;"/><path id="V" d="M17.781,13.183l-1.252,6.041l-1.036,0l-1.251,-6.041l1.036,0l0.733,3.538l0.732,-3.538l1.036,0Z" style="fill:#fff;fill-rule:nonzero;"/><path id="G" d="M19.55,15.685l1.769,0l0,1.769l0,0c0,0.977 -0.793,1.77 -1.77,1.77c-0.977,0 -1.769,-0.793 -1.769,-1.77l0,-2.502l-0,0c0,-0.977 0.792,-1.769 1.77,-1.769c0.977,0 1.769,0.792 1.769,1.769l-1.036,0c0,-0.404 -0.328,-0.733 -0.733,-0.733c-0.405,0 -0.733,0.328 -0.733,0.733l0,2.502c0,0.405 0.328,0.733 0.733,0.733c0.404,0 0.732,-0.328 0.733,-0.732l0,-0.733l-0.733,0l0,-1.037Z" style="fill:#fff;fill-rule:nonzero;"/></g><path d="M16,29l-4.492,-4l8.985,0l-4.492,4Z" style="fill:#e4e6ea;"/></svg>