<?xml version="1.0" encoding="UTF-8" standalone="no"?><!DOCTYPE svg PUBLIC "-//W3C//DTD SVG 1.1//EN" "http://www.w3.org/Graphics/SVG/1.1/DTD/svg11.dtd"><svg width="32px" height="32px" version="1.1" xmlns="http://www.w3.org/2000/svg" xmlns:xlink="http://www.w3.org/1999/xlink" xml:space="preserve" xmlns:serif="http://www.serif.com/" style="fill-rule:evenodd;clip-rule:evenodd;stroke-linejoin:round;stroke-miterlimit:2;"><path d="M5.164,22.72l-1.939,-4.848c-0.205,-0.512 0.045,-1.095 0.557,-1.3c0.512,-0.205 1.095,0.045 1.3,0.557l0.229,0.571l18.143,-7.258l-0.228,-0.571c-0.205,-0.512 0.045,-1.095 0.557,-1.3c0.512,-0.205 1.095,0.045 1.3,0.557l1.957,4.892c-0.692,0.071 -1.332,0.32 -1.875,0.699l-0.968,-2.42l-18.143,7.258l0.986,2.464c-0.692,0.071 -1.332,0.32 -1.875,0.699Zm8.131,-12.391c-0.243,1.378 -0.458,2.604 -0.547,2.964c-0.15,0.594 -0.447,0.89 -0.889,0.888c-0.396,-0.008 -0.983,-0.361 -1.761,-1.057c-0.063,-0.064 -0.098,-0.13 -0.107,-0.2c-0.017,-0.14 0.049,-0.219 0.197,-0.237c0.086,-0.01 0.171,0.011 0.256,0.064c0.322,0.183 0.541,0.267 0.658,0.253c0.187,-0.022 0.334,-0.21 0.442,-0.562c0.098,-0.501 0.287,-1.71 0.488,-3.039c-1.309,-0.957 -2.51,-1.813 -2.755,-1.889c-0.237,-0.068 -0.402,-0.066 -0.496,0.004c-0.094,0.07 -0.183,0.24 -0.266,0.508c-0.038,0.107 -0.088,0.183 -0.151,0.23c-0.094,0.07 -0.169,0.068 -0.226,-0.007c-0.061,-0.082 -0.068,-0.209 -0.021,-0.381c0.261,-0.842 0.482,-1.437 0.661,-1.787c0.132,-0.255 0.226,-0.404 0.283,-0.447c0.132,-0.099 0.318,-0.066 0.557,0.097c0.154,0.101 1.335,1.023 2.657,2.053c0.247,-1.657 0.467,-3.139 0.508,-3.319c0.061,-0.284 0.173,-0.435 0.337,-0.455c0.07,-0.008 0.241,0.034 0.513,0.128c0.371,0.129 0.941,0.409 1.711,0.838c0.153,0.092 0.236,0.189 0.248,0.29c0.011,0.093 -0.042,0.147 -0.158,0.161c-0.078,0.009 -0.167,-0.012 -0.268,-0.063c-0.245,-0.137 -0.426,-0.198 -0.543,-0.184c-0.117,0.014 -0.238,0.127 -0.362,0.339c-0.125,0.224 -0.404,1.673 -0.692,3.268c1.063,0.824 2.032,1.569 2.45,1.864c0.321,0.181 0.557,0.215 0.708,0.102c0.094,-0.07 0.195,-0.283 0.302,-0.637c0.025,-0.097 0.072,-0.172 0.141,-0.223c0.119,-0.089 0.221,-0.077 0.306,0.036c0.042,0.057 0.063,0.129 0.061,0.219c-0.083,1.041 -0.265,1.701 -0.546,1.98c-0.319,0.307 -0.737,0.297 -1.256,-0.03c-0.312,-0.199 -1.314,-0.939 -2.44,-1.769Z" style="fill:#e4e6ea;"/><path d="M11.167,24.514l12.571,-5.028c0.59,1.473 2.032,2.514 3.715,2.514l-0,4l-16,0c0,-0.525 -0.101,-1.026 -0.285,-1.486Z" style="fill:#909194;"/><circle cx="7.453" cy="26" r="3" style="fill:#0fb881;"/><circle cx="27.453" cy="18" r="3" style="fill:#6366f1;"/></svg>