<?xml version="1.0" encoding="UTF-8" standalone="no"?><!DOCTYPE svg PUBLIC "-//W3C//DTD SVG 1.1//EN" "http://www.w3.org/Graphics/SVG/1.1/DTD/svg11.dtd"><svg width="100%" height="100%" viewBox="0 0 32 32" version="1.1" xmlns="http://www.w3.org/2000/svg" xmlns:xlink="http://www.w3.org/1999/xlink" xml:space="preserve" xmlns:serif="http://www.serif.com/" style="fill-rule:evenodd;clip-rule:evenodd;stroke-linejoin:round;stroke-miterlimit:2;"><path d="M6,17.792c-0.883,-0.386 -1.5,-1.267 -1.5,-2.292c0,-1.024 0.617,-1.906 1.5,-2.292l0,-5.208c-0,-0.552 0.448,-1 1,-1c0.552,-0 1,0.448 1,1l0,5.208c0.883,0.386 1.5,1.267 1.5,2.292c0,1.024 -0.617,1.906 -1.5,2.292l-0,6.208c-0,0.552 -0.448,1 -1,1c-0.552,-0 -1,-0.448 -1,-1l0,-6.208Zm1,-3.792c-0.828,0 -1.5,0.672 -1.5,1.5c0,0.828 0.672,1.5 1.5,1.5c0.828,0 1.5,-0.672 1.5,-1.5c0,-0.828 -0.672,-1.5 -1.5,-1.5Zm17,8.292c-0.883,-0.386 -1.5,-1.267 -1.5,-2.292c0,-1.024 0.617,-1.906 1.5,-2.292l0,-9.708c0,-0.552 0.448,-1 1,-1c0.552,0 1,0.448 1,1l-0,9.708c0.883,0.386 1.5,1.267 1.5,2.292c0,1.024 -0.617,1.906 -1.5,2.292l0,1.708c0,0.552 -0.448,1 -1,1c-0.552,0 -1,-0.448 -1,-1l0,-1.708Zm1,-3.792c-0.828,0 -1.5,0.672 -1.5,1.5c0,0.828 0.672,1.5 1.5,1.5c0.828,0 1.5,-0.672 1.5,-1.5c0,-0.828 -0.672,-1.5 -1.5,-1.5Zm-13,3.792c-0.883,-0.386 -1.5,-1.267 -1.5,-2.292c0,-1.024 0.617,-1.906 1.5,-2.292l0,-9.708c-0,-0.552 0.448,-1 1,-1c0.552,-0 1,0.448 1,1l0,9.708c0.883,0.386 1.5,1.267 1.5,2.292c0,1.024 -0.617,1.906 -1.5,2.292l0,1.708c-0,0.552 -0.448,1 -1,1c-0.552,-0 -1,-0.448 -1,-1l0,-1.708Zm1,-3.792c-0.828,0 -1.5,0.672 -1.5,1.5c0,0.828 0.672,1.5 1.5,1.5c0.828,0 1.5,-0.672 1.5,-1.5c0,-0.828 -0.672,-1.5 -1.5,-1.5Z" style="fill:#909194;"/><path d="M18,13.292c-0.883,-0.386 -1.5,-1.267 -1.5,-2.292c0,-1.024 0.617,-1.906 1.5,-2.292l-0,-0.708c0,-0.552 0.448,-1 1,-1c0.552,0 1,0.448 1,1l-0,0.708c0.883,0.386 1.5,1.267 1.5,2.292c0,1.024 -0.617,1.906 -1.5,2.292l0,10.708c0,0.552 -0.448,1 -1,1c-0.552,0 -1,-0.448 -1,-1l0,-10.708Zm1,-3.792c-0.828,0 -1.5,0.672 -1.5,1.5c0,0.828 0.672,1.5 1.5,1.5c0.828,0 1.5,-0.672 1.5,-1.5c0,-0.828 -0.672,-1.5 -1.5,-1.5Z" style="fill:#e4e6ea;"/></svg>