<?xml version="1.0" encoding="UTF-8" standalone="no"?><!DOCTYPE svg PUBLIC "-//W3C//DTD SVG 1.1//EN" "http://www.w3.org/Graphics/SVG/1.1/DTD/svg11.dtd"><svg width="32px" height="32px" version="1.1" xmlns="http://www.w3.org/2000/svg" xmlns:xlink="http://www.w3.org/1999/xlink" xml:space="preserve" xmlns:serif="http://www.serif.com/" style="fill-rule:evenodd;clip-rule:evenodd;stroke-linejoin:round;stroke-miterlimit:2;"><path d="M7.606,22.456l0,-19c-0,-0.552 0.448,-1 1,-1l9.981,-0c0.266,0 0.524,0.106 0.714,0.3l4.905,5c0.185,0.189 0.286,0.441 0.286,0.7l-0,14c-0,0.552 -0.448,1 -1,1l-14.886,0c-0.552,0 -1,-0.448 -1,-1Z" style="fill:#e4e6ea;"/><path d="M16.049,28.951l-4.492,-4l8.985,0l-4.492,4Z" style="fill:#e4e6ea;"/><path d="M12.912,16.204l0.732,0c0.234,0 0.424,0.022 0.569,0.067c0.146,0.043 0.268,0.141 0.368,0.292c0.1,0.15 0.149,0.331 0.149,0.543c0,0.195 -0.04,0.362 -0.121,0.502c-0.081,0.14 -0.19,0.241 -0.327,0.303c-0.136,0.062 -0.345,0.093 -0.628,0.093l-0.253,0l0,1.154l-0.489,0l0,-2.955Zm0.489,0.379l0,1.03l0.242,0c0.216,0 0.366,-0.04 0.448,-0.121c0.084,-0.081 0.126,-0.212 0.126,-0.394c0,-0.136 -0.027,-0.245 -0.082,-0.329c-0.055,-0.085 -0.115,-0.137 -0.182,-0.156c-0.065,-0.02 -0.168,-0.03 -0.31,-0.03l-0.242,0Zm1.703,-0.379l0.665,0c0.322,0 0.579,0.057 0.771,0.171c0.193,0.114 0.339,0.284 0.437,0.509c0.1,0.225 0.149,0.475 0.149,0.749c0,0.289 -0.045,0.546 -0.134,0.773c-0.088,0.225 -0.224,0.407 -0.407,0.545c-0.182,0.139 -0.442,0.208 -0.779,0.208l-0.701,0l0,-2.955Zm0.489,0.392l0,2.171l0.203,0c0.284,0 0.491,-0.098 0.619,-0.294c0.128,-0.198 0.193,-0.461 0.193,-0.79c0,-0.724 -0.271,-1.087 -0.812,-1.087l-0.203,0Zm2.002,-0.392l1.641,0l0,0.392l-1.152,0l0,0.883l0.922,0l0,0.392l-0.922,0l0,1.288l-0.489,0l0,-2.955Z" style="fill:#2c2c2c;fill-rule:nonzero;"/><path d="M10.61,15.983c-0.621,-0.621 0.051,-1.474 1.874,-2.381l1.147,-0.57l0.447,-0.978c0.246,-0.538 0.613,-1.416 0.815,-1.95l0.368,-0.972l-0.254,-0.72c-0.312,-0.885 -0.423,-2.214 -0.225,-2.693c0.268,-0.648 1.147,-0.581 1.495,0.113c0.272,0.542 0.244,1.524 -0.078,2.762l-0.264,1.015l0.233,0.395c0.128,0.217 0.502,0.733 0.83,1.146l0.618,0.769l0.769,-0.1c2.442,-0.319 3.279,0.223 3.279,1c0,0.98 -1.918,1.061 -3.528,-0.07c-0.362,-0.255 -0.611,-0.507 -0.611,-0.507c0,0 -1.009,0.205 -1.506,0.339c-0.513,0.138 -0.769,0.225 -1.52,0.478c0,0 -0.264,0.383 -0.435,0.661c-0.639,1.035 -1.385,1.893 -1.918,2.205c-0.596,0.35 -1.222,0.373 -1.537,0.059Zm0.975,-0.348c0.349,-0.216 1.056,-1.051 1.545,-1.827l0.198,-0.314l-0.902,0.453c-1.393,0.7 -2.03,1.36 -1.698,1.759c0.186,0.224 0.409,0.206 0.857,-0.072Zm9.046,-2.539c0.341,-0.239 0.292,-0.721 -0.094,-0.915c-0.3,-0.151 -0.543,-0.182 -1.323,-0.171c-0.48,0.033 -1.251,0.129 -1.381,0.159c0,0 0.424,0.293 0.612,0.4c0.25,0.143 0.859,0.408 1.303,0.544c0.438,0.134 0.692,0.12 0.884,-0.017l0,0Zm-3.637,-1.512c-0.207,-0.217 -0.558,-0.671 -0.781,-1.007c-0.291,-0.382 -0.438,-0.652 -0.438,-0.652c0,0 -0.213,0.685 -0.388,1.097l-0.545,1.348l-0.158,0.306c0,0 0.84,-0.276 1.268,-0.387c0.453,-0.118 1.372,-0.299 1.372,-0.299l-0.33,-0.405Zm-1.172,-4.701c0.053,-0.442 0.075,-0.884 -0.067,-1.107c-0.394,-0.431 -0.87,-0.072 -0.789,0.953c0.027,0.345 0.113,0.934 0.227,1.297l0.208,0.66l0.146,-0.497c0.081,-0.273 0.204,-0.861 0.275,-1.306Z" style="fill:#ff2116;fill-rule:nonzero;"/></svg>